<?xml version="1.0" standalone="no"?>
<!DOCTYPE svg PUBLIC "-//W3C//DTD SVG 20010904//EN"
 "http://www.w3.org/TR/2001/REC-SVG-20010904/DTD/svg10.dtd">
<svg version="1.0" xmlns="http://www.w3.org/2000/svg"
 width="552.000000pt" height="552.000000pt" viewBox="0 0 552.000000 552.000000"
 preserveAspectRatio="xMidYMid meet">
<metadata>
Created by potrace 1.14, written by Peter Selinger 2001-2017
</metadata>
<g transform="translate(0.000000,552.000000) scale(0.100000,-0.100000)"
fill="#000000" stroke="none">
<path d="M699 3859 c-28 -29 -60 -66 -70 -83 -20 -33 -25 -66 -10 -66 5 0 69
-38 142 -84 190 -118 197 -121 218 -102 22 20 33 20 57 -1 10 -10 44 -38 74
-63 30 -25 64 -53 74 -62 11 -10 23 -18 28 -18 5 0 -3 -18 -17 -40 -14 -22
-25 -44 -25 -50 0 -8 -199 -110 -216 -110 -3 0 -14 10 -24 22 l-18 23 -68 -23
c-38 -13 -123 -42 -189 -66 -116 -41 -120 -43 -121 -72 0 -16 3 -36 7 -44 37
-71 49 -110 49 -161 l0 -57 -177 2 -178 1 0 153 0 152 -75 0 -76 0 0 -385 0
-386 76 3 75 3 -1 158 c0 86 2 158 5 158 3 1 84 2 179 3 l172 1 0 -162 0 -163
75 0 75 0 1 163 c0 89 0 223 -1 298 l-1 135 88 58 c151 100 153 102 143 135
-6 23 -5 30 8 34 10 3 50 21 90 41 l72 35 -16 -32 c-9 -18 -28 -45 -41 -61
-22 -27 -23 -31 -9 -41 9 -7 14 -14 12 -16 -4 -4 -10 -52 -26 -214 -6 -60 -13
-126 -15 -145 -2 -19 -7 -64 -10 -100 -3 -36 -7 -78 -10 -95 -2 -16 -7 -64
-11 -105 -3 -41 -8 -78 -11 -82 -2 -5 6 -8 19 -9 25 -1 291 0 476 0 l114 1 -6
39 c-3 21 -12 81 -20 132 -16 104 -22 144 -31 204 -3 22 -10 63 -15 90 -6 28
-12 67 -15 89 -2 21 -7 46 -9 55 -3 9 -7 34 -11 56 -3 22 -8 55 -11 73 -4 20
-2 32 5 32 18 0 13 28 -8 42 -10 7 -21 23 -25 36 -7 21 0 18 63 -24 61 -41 69
-49 60 -66 -15 -28 -4 -49 49 -90 26 -20 94 -75 152 -122 120 -98 109 -98 185
9 76 106 80 100 -96 184 -228 109 -226 108 -248 82 l-19 -22 -90 58 c-79 51
-93 65 -116 112 -15 29 -26 54 -24 56 2 1 54 33 116 70 l113 68 23 -22 23 -21
129 61 c71 33 153 72 183 86 50 24 53 27 47 56 -8 41 -86 166 -108 173 -10 3
-25 -1 -33 -8 -9 -7 -21 -18 -28 -23 -7 -6 -34 -28 -62 -50 -27 -22 -52 -42
-55 -45 -3 -3 -34 -29 -70 -59 -77 -63 -84 -74 -69 -102 9 -17 8 -23 -2 -30
-8 -5 -57 -35 -109 -66 -52 -32 -98 -62 -101 -67 -4 -4 -22 15 -40 43 -19 28
-39 51 -45 51 -6 0 -23 -18 -38 -40 -17 -26 -31 -38 -39 -34 -7 4 -53 41 -104
82 l-92 75 15 28 14 29 -141 145 c-78 80 -146 145 -151 145 -5 0 -32 -23 -59
-51z"/>
<path d="M2065 2888 c-49 -123 -115 -290 -148 -373 -32 -82 -61 -156 -64 -162
-4 -10 15 -13 75 -13 l80 0 33 85 32 85 159 -2 159 -3 21 -50 c11 -27 24 -58
29 -67 5 -10 9 -25 9 -33 0 -12 16 -15 84 -15 l84 0 -35 88 c-19 48 -39 96
-43 107 -11 26 -170 432 -201 512 l-24 63 -81 0 -81 0 -88 -222z m256 -190
c10 -26 19 -48 19 -50 0 -2 -47 -4 -105 -5 -122 -1 -115 -17 -59 132 18 50 38
104 45 120 11 30 11 29 46 -60 19 -49 43 -111 54 -137z"/>
<path d="M2710 2726 l0 -386 75 0 75 0 0 135 0 135 58 0 58 0 78 -135 79 -135
84 0 c97 0 96 -16 7 132 -30 49 -54 91 -54 94 0 3 -10 18 -22 35 l-23 31 30
21 c99 72 137 174 105 288 -14 50 -73 115 -128 141 -42 19 -67 22 -234 26
l-188 4 0 -386z m327 239 c28 -6 73 -50 74 -73 5 -51 -4 -79 -31 -107 -29 -28
-35 -30 -125 -33 l-95 -4 0 110 c0 94 2 111 16 114 21 4 132 -1 161 -7z"/>
<path d="M3419 3103 c0 -5 -1 -178 -2 -386 l-2 -377 247 0 247 0 -2 68 -2 67
-155 2 c-85 1 -161 2 -167 2 -10 1 -13 71 -13 316 l0 315 -75 0 c-41 0 -75 -3
-76 -7z"/>
<path d="M4010 2725 l0 -385 245 0 245 0 0 69 0 69 -152 0 c-84 0 -161 1 -170
1 -16 1 -18 12 -18 94 l0 92 145 0 145 -1 0 67 0 67 -127 0 c-71 0 -136 1
-145 1 -16 1 -18 12 -18 86 l0 85 28 1 c15 0 90 0 167 0 l141 0 0 70 -1 69
-242 0 -243 0 0 -385z"/>
<path d="M4658 3103 c-2 -5 -3 -177 -3 -383 l0 -375 76 -3 76 -3 1 256 c0 141
2 258 4 260 2 3 40 -48 84 -113 43 -64 81 -119 84 -122 3 -3 18 -25 34 -49 34
-53 16 -69 160 143 55 80 102 144 104 141 3 -2 5 -119 5 -260 l-1 -255 74 0
c64 0 74 2 75 18 1 24 1 724 0 740 -1 10 -22 12 -83 10 l-82 -3 -108 -159
c-59 -87 -109 -160 -111 -162 -2 -2 -53 70 -113 160 l-109 165 -82 0 c-45 1
-83 -2 -85 -6z"/>
<path d="M1264 2128 c-6 -20 15 -48 37 -48 15 0 30 30 24 50 -9 28 -51 27 -61
-2z"/>
<path d="M114 1930 l-1 -210 29 0 28 0 0 90 0 90 84 0 c75 0 84 2 89 20 7 29
-8 34 -93 35 l-75 0 0 65 0 65 90 1 c50 1 93 2 98 3 4 1 7 12 7 26 l0 25 -128
0 -128 0 0 -210z"/>
<path d="M2028 2128 c-2 -7 -3 -101 -3 -208 l1 -195 29 0 30 0 -1 205 0 205
-26 3 c-14 2 -27 -3 -30 -10z"/>
<path d="M1058 2107 c-2 -23 -5 -52 -7 -69 -1 -12 -9 -18 -27 -18 -20 0 -25
-4 -22 -22 2 -14 12 -24 27 -28 24 -5 25 -9 26 -100 1 -114 7 -136 43 -146 50
-13 57 -14 84 -3 23 9 26 15 18 29 -7 12 -21 18 -41 18 -17 -1 -35 5 -40 13
-5 8 -9 53 -9 101 l0 87 43 3 c34 2 42 7 42 23 0 16 -8 21 -42 23 l-43 3 0 45
c0 24 -3 44 -7 45 -5 0 -16 2 -25 4 -10 2 -19 -2 -20 -8z"/>
<path d="M515 2023 c-33 -9 -74 -43 -91 -75 -14 -27 -19 -87 -11 -129 5 -25
35 -67 62 -85 54 -35 154 -21 195 28 25 30 25 34 -2 41 -15 4 -30 -1 -45 -15
-32 -30 -97 -29 -128 3 -13 13 -25 33 -27 44 -3 19 3 20 100 22 56 1 108 2
116 2 22 2 1 96 -29 127 -30 31 -96 48 -140 37z m95 -68 c10 -9 20 -25 23 -35
4 -17 -3 -18 -79 -18 -82 1 -95 7 -76 34 29 41 97 51 132 19z"/>
<path d="M798 2014 c-53 -28 -64 -89 -24 -129 13 -13 49 -31 80 -40 48 -14 56
-20 56 -40 0 -44 -52 -55 -102 -21 -30 20 -37 21 -53 10 -26 -19 -12 -42 40
-65 91 -40 175 -2 175 79 0 35 -44 78 -88 88 -51 11 -72 23 -72 44 0 37 78 48
105 14 12 -15 59 0 53 18 -15 44 -118 70 -170 42z"/>
<path d="M1786 2020 c-28 -9 -76 -47 -76 -61 0 -16 45 -17 63 -2 20 19 80 21
101 4 8 -7 16 -23 19 -36 4 -24 3 -25 -55 -25 -64 0 -111 -18 -128 -49 -47
-88 60 -174 152 -123 30 16 38 17 38 6 0 -9 10 -14 28 -14 l28 0 -2 108 c-2
126 -16 166 -69 188 -38 16 -57 16 -99 4z m107 -193 c-3 -39 -17 -54 -58 -61
-44 -9 -75 8 -75 38 0 38 27 51 100 51 32 0 35 -2 33 -28z"/>
<path d="M2228 2023 c-15 -2 -37 -16 -48 -30 -45 -57 -11 -122 74 -144 24 -6
53 -20 62 -30 16 -18 16 -21 1 -36 -23 -23 -82 -21 -110 5 -19 17 -25 19 -39
8 -10 -7 -18 -15 -18 -18 0 -15 40 -46 70 -56 104 -34 198 44 147 119 -25 37
-35 43 -97 61 -34 10 -46 19 -48 35 -3 23 23 44 49 39 31 -5 59 -18 59 -26 0
-5 10 -6 23 -1 70 26 -34 88 -125 74z"/>
<path d="M1268 2013 c-2 -5 -4 -71 -3 -148 l1 -140 29 0 28 0 0 125 c-2 182 0
170 -27 170 -14 0 -26 -3 -28 -7z"/>
<path d="M1427 1888 c30 -73 58 -141 60 -150 4 -12 15 -18 37 -18 28 0 33 5
50 48 10 26 25 61 32 77 7 17 27 62 43 100 l30 70 -26 3 c-14 2 -29 0 -33 -5
-4 -4 -26 -57 -50 -116 -23 -59 -44 -106 -47 -104 -2 2 -23 53 -47 113 -41
103 -46 109 -74 112 l-31 3 56 -133z"/>
</g>
</svg>
